PathFileType	4	(X/Y/Z)	HSS_walk5.trc
DataRate	CameraRate	NumFrames	NumMarkers	Units	OrigDataRate	OrigDataStartFrame	OrigNumFrames
120.0	120.0	4	44	mm	120.0	1	1080
Frame#	Time		R.Shoulder		Offset		L.Shoulder		R.Elbow		R.Wrist.Radial		R.Wrist		R.Hand		L.Elbow		L.Wrist.Radial		L.Wrist		L.Hand		R.Hip		V.Sacral		L.PSIS		L.Hip		R.Thigh.Upper		R.Thigh.Front		R.Thigh.Rear		X.Shell.Lower.Thigh.Right		R.Knee.Lateral		R.Shank.Upper		R.Shank.Front		R.Shank.Rear		X.Shell.Lower.Shank.Right		R.Ankle.Lateral		R.Heel		R.Toe		L.Thigh.Upper		L.Thigh.Front		L.Thigh.Rear		X.Shell.Lower.Thigh.Left		L.Knee.Lateral		L.Shank.Upper		L.Shank.Front		L.Shank.Rear		X.Shell.Lower.Shank.Left		L.Ankle.Lateral		L.Heel		L.Toe		R.Troc		L.Troc		R.PSIS		L.ASIS		R.ASIS
			X1	Y1	Z1	X2	Y2	Z2	X3	Y3	Z3	X4	Y4	Z4	X5	Y5	Z5	X6	Y6	Z6	X7	Y7	Z7	X8	Y8	Z8	X9	Y9	Z9	X10	Y10	Z10	X11	Y11	Z11	X12	Y12	Z12	X13	Y13	Z13	X14	Y14	Z14	X15	Y15	Z15	X16	Y16	Z16	X17	Y17	Z17	X18	Y18	Z18	X19	Y19	Z19	X20	Y20	Z20	X21	Y21	Z21	X22	Y22	Z22	X23	Y23	Z23	X24	Y24	Z24	X25	Y25	Z25	X26	Y26	Z26	X27	Y27	Z27	X28	Y28	Z28	X29	Y29	Z29	X30	Y30	Z30	X31	Y31	Z31	X32	Y32	Z32	X33	Y33	Z33	X34	Y34	Z34	X35	Y35	Z35	X36	Y36	Z36	X37	Y37	Z37	X38	Y38	Z38	X39	Y39	Z39	X40	Y40	Z40	X41	Y41	Z41	X42	Y42	Z42	X43	Y43	Z43	X44	Y44	Z44

1	0.00000	-1818.79810	1479.84753	-15.47954	-1916.04907	1373.69971	-301.07297	-1807.50159	1485.91321	-389.22449	-1806.75330	1113.09546	30.57873	-1641.96179	915.09436	23.31396	-1677.72595	903.26251	86.90005	-1621.26611	836.49420	79.98676	-1802.28198	1120.61780	-430.56189	-1677.00415	915.49896	-466.65210	-1649.46753	915.23175	-399.25476	-1628.01489	844.65790	-448.79739	-1746.24072	1041.94556	-44.47725	-1859.51282	1021.83154	-197.11444	-1858.07263	1027.89819	-237.62025	-1735.41467	1037.35559	-340.63113	-1698.45459	696.79413	-7.93036	-1664.56775	660.67261	-24.58399	-1720.74866	657.91467	1.15190	-1692.74866	625.91016	-17.40600	-1752.03625	517.87689	-33.43914	-1765.07910	367.73712	12.57850	-1740.94763	323.76627	-13.54410	-1798.84631	332.35681	2.16840	-1778.10449	291.66025	-9.14550	-1800.46326	69.71423	-56.11989	-1845.99170	31.71614	-104.71461	-1650.60156	36.36703	-56.95551	-1685.80725	693.45898	-361.11057	-1667.39966	643.95624	-338.01697	-1715.83667	658.11371	-375.92511	-1691.36877	622.90027	-362.73111	-1761.23413	507.63022	-344.46609	-1793.55347	307.64783	-385.52875	-1766.11646	284.70053	-368.91736	-1823.76990	268.63544	-371.46494	-1800.70312	237.95872	-373.47104	-1784.50757	72.02302	-327.68057	-1838.81995	33.07901	-281.30624	-1640.00439	32.58574	-319.19800	-1730.03076	882.77911	-6.64110	-1729.65149	894.52374	-377.25140	-1861.77710	1027.16138	-152.45859	-1670.39246	1001.51581	-298.61469	-1683.86548	1005.13977	-75.15640
2	0.00833	-1819.13086	1479.94775	-15.50000	-1916.43359	1373.70630	-301.09857	-1807.95447	1486.00415	-389.22992	-1806.81628	1113.22705	30.45710	-1641.92310	915.24280	23.37243	-1677.68127	903.47705	86.98839	-1621.21362	836.66486	80.10639	-1802.27039	1120.68262	-430.61838	-1676.45886	915.74860	-466.62885	-1648.75916	915.51965	-399.17365	-1627.37695	845.18799	-448.83752	-1746.32776	1041.97852	-44.57280	-1860.01831	1021.80420	-197.03305	-1858.47961	1027.94629	-237.64632	-1735.86719	1037.43506	-340.74234	-1698.39514	696.83997	-8.04761	-1664.47009	660.79547	-24.76494	-1720.65503	657.92456	1.10415	-1692.63379	625.95349	-17.49720	-1751.72327	517.88782	-33.56008	-1764.81824	367.67279	12.45998	-1740.72913	323.79388	-13.67696	-1798.62683	332.32571	2.04421	-1777.82581	291.59732	-9.33138	-1800.50977	69.73617	-56.12386	-1846.00476	31.67947	-104.72941	-1650.66785	36.49723	-57.07122	-1686.14587	693.54510	-361.19330	-1667.69104	644.06213	-338.11951	-1716.17004	658.13611	-376.09985	-1691.67566	622.94910	-362.88074	-1761.46057	507.64182	-344.48880	-1793.65771	307.65259	-385.53836	-1766.21741	284.67514	-368.97845	-1823.88428	268.58865	-371.45914	-1800.81909	237.97815	-373.46002	-1784.42236	71.97485	-327.68024	-1838.82715	33.04420	-281.31329	-1639.98865	32.63769	-319.29099	-1730.16809	882.76917	-6.68960	-1730.12695	894.55194	-377.34787	-1861.97729	1027.11023	-152.39301	-1670.86182	1001.58130	-298.76553	-1684.07703	1005.21991	-75.27388
3	0.01667	-1819.55615	1480.03967	-15.53597	-1916.73682	1373.70203	-301.10968	-1808.46497	1486.04016	-389.24933	-1806.87878	1113.32751	30.37961	-1641.87561	915.34790	23.43362	-1677.69189	903.65540	87.07662	-1621.20520	836.77026	80.19636	-1802.23987	1120.71851	-430.63052	-1675.98169	916.01953	-466.60834	-1648.60449	915.73822	-399.12698	-1626.77002	845.52179	-448.67603	-1746.52991	1041.98291	-44.60454	-1860.38330	1021.81616	-196.99286	-1858.93665	1027.94580	-237.50378	-1736.33289	1037.44958	-340.81229	-1698.29675	696.93457	-8.19616	-1664.41943	660.94049	-24.82132	-1720.49915	658.12341	0.73609	-1692.48059	625.99939	-17.64032	-1751.46985	517.90833	-33.66236	-1764.48926	367.61563	12.31329	-1740.50659	323.78802	-13.75924	-1798.37781	332.33499	1.96180	-1777.60327	291.62030	-9.37911	-1800.50940	69.69706	-56.16437	-1846.02795	31.64321	-104.77451	-1650.73462	36.59724	-57.08694	-1686.50977	693.53156	-361.28180	-1667.98645	644.09497	-338.31992	-1716.47119	658.14148	-376.15897	-1691.99158	622.96057	-362.96918	-1761.76953	507.65579	-344.55481	-1793.79846	307.67633	-385.52689	-1766.35461	284.67773	-368.91129	-1823.99316	268.56982	-371.46893	-1800.88416	237.94691	-373.48016	-1784.46777	72.02901	-327.70770	-1838.83667	33.03370	-281.32513	-1640.06165	32.68674	-319.34140	-1730.32092	882.78754	-6.68591	-1730.62146	894.54108	-376.85324	-1862.33923	1027.08508	-152.24644	-1671.35754	1001.63281	-298.90863	-1684.07397	1005.26917	-75.34306
4	0.02500	-1819.89209	1480.09692	-15.55594	-1917.01685	1373.65112	-301.04260	-1808.81213	1486.10974	-389.23596	-1806.94958	1113.40161	30.33558	-1641.83813	915.40723	23.44757	-1677.72656	903.76123	87.12138	-1621.28223	836.86914	80.30727	-1802.22473	1120.74744	-430.66583	-1675.72559	916.32068	-466.27853	-1648.19055	916.10083	-398.96829	-1626.17310	845.98450	-448.72198	-1746.61218	1042.01965	-44.70044	-1860.59131	1021.84039	-196.93918	-1859.49561	1027.96863	-237.39154	-1736.76672	1037.42847	-340.77924	-1698.23999	696.97937	-8.28212	-1664.33008	661.00476	-24.89817	-1720.38721	658.17053	0.65707	-1692.34277	626.14130	-17.70464	-1751.24951	517.85095	-33.71162	-1764.22607	367.60934	12.22865	-1740.25684	323.82068	-13.85343	-1798.10962	332.35217	1.93689	-1777.46216	291.64706	-9.43132	-1800.55957	69.72118	-56.17897	-1846.07617	31.63992	-104.75056	-1650.87683	36.69688	-57.18586	-1686.99365	693.55780	-361.38351	-1668.40588	644.17200	-338.50665	-1716.84692	658.16370	-376.27338	-1692.33093	622.95197	-363.02414	-1762.00061	507.66879	-344.57339	-1793.92078	307.63559	-385.52005	-1766.44446	284.64648	-368.90948	-1824.07568	268.52451	-371.46521	-1800.99341	237.93904	-373.46484	-1784.47815	71.98882	-327.71906	-1838.85669	33.02627	-281.31619	-1640.06689	32.72296	-319.32269	-1730.43018	882.78485	-6.76486	-1731.22949	894.52057	-376.85944	-1862.76770	1027.06445	-152.16739	-1671.84058	1001.73175	-299.10385	-1684.47852	1005.32007	-75.46230
